<?xml version="1.0" encoding="UTF-8"?>
<svg id="Camada_2" data-name="Camada 2" xmlns="http://www.w3.org/2000/svg" viewBox="0 0 401.99 401.99">
  <defs>
    <style>
      .cls-1, .cls-2 {
        font-family: BaronNeue, 'Baron Neue';
      }

      .cls-1, .cls-2, .cls-3, .cls-4 {
        fill: #16375b;
      }

      .cls-1, .cls-4 {
        font-size: 29.12px;
      }

      .cls-5 {
        stroke-width: 3px;
      }

      .cls-5, .cls-6 {
        fill: none;
        stroke: #16375b;
        stroke-miterlimit: 10;
      }

      .cls-2 {
        font-size: 88.53px;
      }

      .cls-6 {
        stroke-width: 8px;
      }

      .cls-4 {
        font-family: Sen-Regular, Sen;
        font-variation-settings: 'wght' 400;
      }
    </style>
  </defs>
  <g id="Grade">
    <g>
      <g>
        <g>
          <g>
            <path class="cls-3" d="m151.9,260.53c0,.08-.01.15-.01.23,0,8.88,12.26,8.88,12.26,8.88h7.76c.29,0,.54-.11.74-.28h-8.5s-11.98,0-12.24-8.83Z"/>
            <path class="cls-3" d="m138.11,213.63l17.65,27.53c-7.12,1.94-16.13,6.94-16.13,19.6,0,12.89,9.39,17.8,16.55,19.67h31.24c.63,0,1.14-.51,1.14-1.14v-9.31c0-.22-.06-.44-.18-.62l-10.3-15.82c-.49-.76.05-1.76.95-1.76h8.39c.63,0,1.14-.51,1.14-1.14v-39.38c0-.63-.51-1.14-1.14-1.14h-9.98c-.63,0-1.14.51-1.14,1.14v26.4c0,1.26-1.02,2.28-2.28,2.28h-3.5c-.78,0-1.5-.4-1.92-1.05l-18.06-28.24c-.21-.33-.57-.53-.96-.53h-9.56c-1.8,0-2.89,1.99-1.92,3.51Zm35.88,55.73h-1.35c-.19.17-.44.28-.74.28h-7.76s-12.26,0-12.26-8.88c0-.08.01-.15.01-.23,0-.1-.01-.19-.01-.29,0-7.23,7.44-8.8,10.68-9.11l11.42,18.23Z"/>
            <path class="cls-3" d="m151.88,260.24c0,.1,0,.19.01.29.13-5.47,4.81-7.53,8.33-8.29,1.37-.3,2.78.32,3.54,1.5l9.09,14.14c.33.51.18,1.12-.22,1.47h1.35s-11.42-18.23-11.42-18.23c-3.25.31-10.68,1.89-10.68,9.11Z"/>
          </g>
          <path class="cls-3" d="m201.09,277.22l27.16-64.09c.36-.84,1.18-1.39,2.1-1.39h1.07c.91,0,1.74.55,2.1,1.39l27.16,64.09c.32.75-.23,1.58-1.05,1.58h-7.31c-.47,0-.89-.29-1.06-.72l-17.08-43.15c-1.14-2.87-5.2-2.88-6.35-.01l-17.32,43.17c-.17.43-.59.71-1.06.71h-7.32c-.82,0-1.37-.83-1.05-1.58Z"/>
          <path class="cls-3" d="m163.15,132.44c4.82,0,9.16,1.1,13.02,3.3,3.86,2.2,6.92,5.39,9.17,9.56,2.26,4.17,3.38,9.16,3.38,14.96v38.46c0,1.26-1.02,2.28-2.28,2.28h-3.79c-1.26,0-2.28-1.02-2.28-2.28v-38.16c0-4.54-.79-8.19-2.36-10.96-1.58-2.77-3.68-4.79-6.3-6.06-2.63-1.27-5.48-1.9-8.57-1.9s-5.95.63-8.57,1.9c-2.63,1.27-4.73,3.29-6.3,6.06-1.58,2.77-2.36,6.42-2.36,10.96v38.16c0,1.26-1.02,2.28-2.28,2.28h-3.79c-1.26,0-2.28-1.02-2.28-2.28v-38.46c0-5.81,1.13-10.79,3.38-14.96,2.26-4.17,5.3-7.36,9.13-9.56,3.83-2.2,8.19-3.3,13.07-3.3Z"/>
          <text class="cls-2" transform="translate(198.57 196.53)"><tspan x="0" y="0">ะก</tspan></text>
        </g>
        <text class="cls-4" transform="translate(207.85 45.72) rotate(4.71)"><tspan x="0" y="0"> </tspan></text>
        <text class="cls-4" transform="translate(215.96 46.12) rotate(9.75)"><tspan x="0" y="0">A</tspan></text>
        <text class="cls-4" transform="translate(234.77 49.25) rotate(17.13)"><tspan x="0" y="0">U</tspan></text>
        <text class="cls-1" transform="translate(254.64 55.46) rotate(24.2)"><tspan x="0" y="0">R</tspan></text>
        <text class="cls-4" transform="translate(270.43 62.46) rotate(30.92)"><tspan x="0" y="0">A</tspan></text>
        <text class="cls-4" transform="translate(286.81 72.54) rotate(35.95)"><tspan x="0" y="0"> </tspan></text>
        <text class="cls-1" transform="translate(293.77 76.56) rotate(43.36)"><tspan x="0" y="0">O</tspan></text>
        <text class="cls-1" transform="translate(316.82 99.33) rotate(51.03)"><tspan x="0" y="0"> </tspan></text>
        <text class="cls-4" transform="translate(323.07 106.66) rotate(56.32)"><tspan x="0" y="0">A</tspan></text>
        <text class="cls-4" transform="translate(333.7 122.45) rotate(63.66)"><tspan x="0" y="0">U</tspan></text>
        <text class="cls-1" transform="translate(342.88 141.17) rotate(70.73)"><tspan x="0" y="0">R</tspan></text>
        <text class="cls-4" transform="translate(348.66 157.42) rotate(77.47)"><tspan x="0" y="0">A</tspan></text>
        <text class="cls-4" transform="translate(352.61 176.24) rotate(82.53)"><tspan x="0" y="0"> </tspan></text>
        <text class="cls-1" transform="translate(354.22 184.02) rotate(89.07)"><tspan x="0" y="0">O</tspan></text>
        <text class="cls-4" transform="translate(353.77 216.47) rotate(97.27)"><tspan x="0" y="0"> </tspan></text>
        <text class="cls-4" transform="translate(353 224.57) rotate(102.33)"><tspan x="0" y="0">A</tspan></text>
        <text class="cls-4" transform="translate(349.02 243.21) rotate(109.72)"><tspan x="0" y="0">U</tspan></text>
        <text class="cls-1" transform="translate(341.92 262.8) rotate(116.78)"><tspan x="0" y="0">R</tspan></text>
        <text class="cls-4" transform="translate(334.21 278.26) rotate(123.49)"><tspan x="0" y="0">A</tspan></text>
        <text class="cls-4" transform="translate(323.42 294.16) rotate(128.52)"><tspan x="0" y="0"> </tspan></text>
        <text class="cls-1" transform="translate(319.08 300.94) rotate(135.92)"><tspan x="0" y="0">O</tspan></text>
        <text class="cls-4" transform="translate(295.28 322.94) rotate(143.32)"><tspan x="0" y="0"> </tspan></text>
        <text class="cls-4" transform="translate(288.92 328.01) rotate(148.35)"><tspan x="0" y="0">A</tspan></text>
        <text class="cls-4" transform="translate(272.73 338.1) rotate(155.71)"><tspan x="0" y="0">U</tspan></text>
        <text class="cls-1" transform="translate(253.75 346.59) rotate(162.77)"><tspan x="0" y="0">R</tspan></text>
        <text class="cls-4" transform="translate(237.28 351.79) rotate(169.51)"><tspan x="0" y="0">A</tspan></text>
        <text class="cls-4" transform="translate(218.32 355.06) rotate(174.56)"><tspan x="0" y="0"> </tspan></text>
        <text class="cls-1" transform="translate(210.43 356.63) rotate(-178.1)"><tspan x="0" y="0">O</tspan></text>
        <text class="cls-1" transform="translate(178.06 354.83) rotate(-170.41)"><tspan x="0" y="0"> </tspan></text>
        <text class="cls-4" transform="translate(168.57 353.48) rotate(-165.08)"><tspan x="0" y="0">A</tspan></text>
        <text class="cls-4" transform="translate(150.1 348.65) rotate(-157.68)"><tspan x="0" y="0">U</tspan></text>
        <text class="cls-1" transform="translate(130.9 340.69) rotate(-150.64)"><tspan x="0" y="0">R</tspan></text>
        <text class="cls-4" transform="translate(115.78 332.28) rotate(-143.94)"><tspan x="0" y="0">A</tspan></text>
        <text class="cls-4" transform="translate(100.37 320.78) rotate(-138.92)"><tspan x="0" y="0"> </tspan></text>
        <text class="cls-1" transform="translate(93.79 316.14) rotate(-131.52)"><tspan x="0" y="0">O</tspan></text>
        <text class="cls-1" transform="translate(72.88 291.43) rotate(-123.85)"><tspan x="0" y="0"> </tspan></text>
        <text class="cls-4" transform="translate(67.45 283.31) rotate(-120.53)"><tspan x="0" y="0"> </tspan></text>
        <text class="cls-4" transform="translate(63.09 276.42) rotate(-115.47)"><tspan x="0" y="0">A</tspan></text>
        <text class="cls-4" transform="translate(54.8 259.25) rotate(-108.08)"><tspan x="0" y="0">U</tspan></text>
        <text class="cls-1" transform="translate(48.42 239.45) rotate(-101.02)"><tspan x="0" y="0">R</tspan></text>
        <text class="cls-4" transform="translate(45.04 222.51) rotate(-94.32)"><tspan x="0" y="0">A</tspan></text>
        <text class="cls-4" transform="translate(43.79 203.33) rotate(-89.07)"><tspan x="0" y="0"> </tspan></text>
        <text class="cls-4" transform="translate(43.64 195.18) rotate(-84.36)"><tspan x="0" y="0">A</tspan></text>
        <text class="cls-4" transform="translate(45.42 176.2) rotate(-77)"><tspan x="0" y="0">U</tspan></text>
        <text class="cls-1" transform="translate(50.18 155.93) rotate(-69.93)"><tspan x="0" y="0">R</tspan></text>
        <text class="cls-4" transform="translate(56.04 139.65) rotate(-63.18)"><tspan x="0" y="0">A</tspan></text>
        <text class="cls-4" transform="translate(64.91 122.59) rotate(-58.13)"><tspan x="0" y="0"> </tspan></text>
        <text class="cls-1" transform="translate(68.41 115.39) rotate(-50.72)"><tspan x="0" y="0">O</tspan></text>
        <text class="cls-1" transform="translate(89.48 90.77) rotate(-43.06)"><tspan x="0" y="0"> </tspan></text>
        <text class="cls-4" transform="translate(96.34 84.04) rotate(-37.78)"><tspan x="0" y="0">A</tspan></text>
        <text class="cls-4" transform="translate(111.37 72.27) rotate(-30.44)"><tspan x="0" y="0">U</tspan></text>
        <text class="cls-1" transform="translate(129.34 61.79) rotate(-23.41)"><tspan x="0" y="0">R</tspan></text>
        <text class="cls-4" transform="translate(145.17 54.85) rotate(-16.66)"><tspan x="0" y="0">A</tspan></text>
        <text class="cls-4" transform="translate(163.66 49.55) rotate(-11.58)"><tspan x="0" y="0"> </tspan></text>
        <text class="cls-1" transform="translate(171.32 47.14) rotate(-4.14)"><tspan x="0" y="0">O</tspan></text>
        <text class="cls-1" transform="translate(203.7 45.52) rotate(3.47)"><tspan x="0" y="0"> </tspan></text>
      </g>
      <circle class="cls-5" cx="201" cy="201" r="129.34"/>
      <circle class="cls-6" cx="201" cy="201" r="197"/>
    </g>
  </g>
</svg>