<?xml version="1.0" encoding="UTF-8"?>
<svg id="Camada_2" data-name="Camada 2" xmlns="http://www.w3.org/2000/svg" viewBox="0 0 88.95 100.14">
  <defs>
    <style>
      .cls-1 {
        stroke-width: 4px;
      }

      .cls-1, .cls-2, .cls-3, .cls-4, .cls-5 {
        stroke-miterlimit: 10;
      }

      .cls-1, .cls-4 {
        stroke: #16375b;
      }

      .cls-1, .cls-4, .cls-5 {
        fill: #16375b;
      }

      .cls-2, .cls-3 {
        fill: #1d1d1b;
      }

      .cls-2, .cls-3, .cls-5 {
        stroke: #fff;
      }

      .cls-3, .cls-5 {
        stroke-width: .75px;
      }

      .cls-4 {
        font-family: BaronNeue, 'Baron Neue';
        font-size: 52.57px;
        stroke-width: 2px;
      }
    </style>
  </defs>
  <g id="Grade">
    <g>
      <g>
        <path class="cls-2" d="m10.86,86.84s0,.09,0,.14c0,5.49,7.58,5.49,7.58,5.49h4.8c.18,0,.34-.07.46-.17h-5.26s-7.41,0-7.57-5.46Z"/>
        <path class="cls-5" d="m2.33,57.83l10.92,17.03c-4.41,1.2-9.98,4.29-9.98,12.12,0,7.97,5.81,11.01,10.23,12.17h19.32c.39,0,.7-.32.7-.7v-5.76c0-.14-.04-.27-.11-.38l-6.37-9.79c-.3-.47.03-1.09.59-1.09h5.19c.39,0,.7-.32.7-.7v-24.35c0-.39-.32-.7-.7-.7h-6.17c-.39,0-.7.32-.7.7v16.32c0,.78-.63,1.41-1.41,1.41h-2.16c-.48,0-.93-.24-1.19-.65l-11.17-17.46c-.13-.2-.35-.32-.59-.32H3.52c-1.11,0-1.79,1.23-1.19,2.17Zm22.19,34.47h-.83c-.12.1-.27.17-.46.17h-4.8s-7.58,0-7.58-5.49c0-.05,0-.09,0-.14,0-.06,0-.12,0-.18,0-4.47,4.6-5.44,6.61-5.64l7.06,11.27Z"/>
        <path class="cls-3" d="m10.85,86.66c0,.06,0,.12,0,.18.08-3.38,2.98-4.66,5.15-5.13.85-.18,1.72.2,2.19.93l5.62,8.75c.2.32.11.69-.14.91h.83s-7.06-11.27-7.06-11.27c-2.01.19-6.61,1.17-6.61,5.64Z"/>
      </g>
      <path class="cls-1" d="m41.28,97.16l16.8-39.63c.22-.52.73-.86,1.3-.86h.66c.57,0,1.08.34,1.3.86l16.8,39.63c.2.46-.14.98-.65.98h-4.52c-.29,0-.55-.18-.65-.45l-10.56-26.69c-.7-1.78-3.21-1.78-3.93,0l-10.71,26.7c-.11.27-.37.44-.65.44h-4.53c-.5,0-.85-.51-.65-.98Z"/>
      <path class="cls-1" d="m17.82,7.62c2.98,0,5.66.68,8.05,2.04,2.39,1.36,4.28,3.33,5.67,5.91,1.4,2.58,2.09,5.66,2.09,9.25v23.78c0,.78-.63,1.41-1.41,1.41h-2.34c-.78,0-1.41-.63-1.41-1.41v-23.6c0-2.81-.49-5.07-1.46-6.78-.97-1.71-2.27-2.96-3.9-3.74-1.62-.78-3.39-1.18-5.3-1.18s-3.68.39-5.3,1.18c-1.62.78-2.92,2.03-3.9,3.74-.97,1.71-1.46,3.97-1.46,6.78v23.6c0,.78-.63,1.41-1.41,1.41h-2.34c-.78,0-1.41-.63-1.41-1.41v-23.78c0-3.59.7-6.68,2.09-9.25,1.4-2.58,3.28-4.55,5.65-5.91,2.37-1.36,5.06-2.04,8.08-2.04Z"/>
      <text class="cls-4" transform="translate(41.23 45.68)"><tspan x="0" y="0">ะก</tspan></text>
      <text/>
    </g>
  </g>
</svg>