<?xml version="1.0" encoding="UTF-8"?>
<svg id="Camada_2" data-name="Camada 2" xmlns="http://www.w3.org/2000/svg" viewBox="0 0 104.21 27.74">
  <defs>
    <style>
      .cls-1 {
        stroke: #16375b;
        stroke-miterlimit: 10;
      }

      .cls-1, .cls-2 {
        fill: #16375b;
      }
    </style>
  </defs>
  <g id="Grade">
    <path class="cls-1" d="m.54,26.12L11.06,1.29c.14-.33.46-.54.81-.54h.41c.35,0,.67.21.81.54l10.52,24.83c.12.29-.09.61-.41.61h-2.83c-.18,0-.34-.11-.41-.28l-6.62-16.72c-.44-1.11-2.01-1.12-2.46,0l-6.71,16.72c-.07.17-.23.28-.41.28H.94c-.32,0-.53-.32-.41-.61Z"/>
    <path class="cls-1" d="m38.48,27.24c-1.87,0-3.55-.43-5.04-1.28-1.5-.85-2.68-2.09-3.55-3.7-.87-1.62-1.31-3.55-1.31-5.8V1.56c0-.49.39-.88.88-.88h1.47c.49,0,.88.39.88.88v14.78c0,1.76.31,3.17.92,4.25.61,1.07,1.42,1.85,2.44,2.35,1.02.49,2.12.74,3.32.74s2.3-.25,3.32-.74c1.02-.49,1.83-1.27,2.44-2.35.61-1.07.92-2.49.92-4.25V1.56c0-.49.39-.88.88-.88h1.47c.49,0,.88.39.88.88v14.9c0,2.25-.44,4.18-1.31,5.8-.87,1.62-2.05,2.85-3.54,3.7-1.48.85-3.17,1.28-5.06,1.28Z"/>
    <path class="cls-1" d="m82.03,26.34L91.89,1.53c.13-.34.46-.56.82-.56h.29c.36,0,.69.22.82.56l9.86,24.82c.12.29-.1.6-.41.6h-2.61c-.18,0-.35-.11-.41-.29l-6.11-16.47c-.43-1.15-2.05-1.15-2.48,0l-6.2,16.48c-.06.17-.23.29-.41.29h-2.61c-.31,0-.53-.31-.41-.6Z"/>
    <g>
      <path class="cls-2" d="m71.66,7.71s0-.06,0-.09c0-3.44-4.75-3.44-4.75-3.44h-3.01c-.11,0-.21.04-.29.11h3.29s4.64,0,4.74,3.42Z"/>
      <path class="cls-2" d="m77,25.88l-6.84-10.66c2.76-.75,6.25-2.69,6.25-7.59s-3.64-6.9-6.41-7.62h-12.1c-.24,0-.44.2-.44.44v3.61c0,.09.02.17.07.24l3.99,6.13c.19.29-.02.68-.37.68h-3.25c-.24,0-.44.2-.44.44v15.25c0,.24.2.44.44.44h3.87c.24,0,.44-.2.44-.44v-10.22c0-.49.4-.88.88-.88h1.35c.3,0,.58.15.74.41l7,10.94c.08.13.22.2.37.2h3.7c.7,0,1.12-.77.74-1.36Zm-13.9-21.59h.52c.08-.07.17-.11.29-.11h3.01s4.75,0,4.75,3.44c0,.03,0,.06,0,.09,0,.04,0,.07,0,.11,0,2.8-2.88,3.41-4.14,3.53l-4.42-7.06Z"/>
      <path class="cls-2" d="m71.67,7.82s0-.07,0-.11c-.05,2.12-1.86,2.92-3.23,3.21-.53.11-1.08-.12-1.37-.58l-3.52-5.48c-.13-.2-.07-.44.09-.57h-.52l4.42,7.06c1.26-.12,4.14-.73,4.14-3.53Z"/>
    </g>
  </g>
</svg>