<?xml version="1.0" encoding="UTF-8"?>
<svg id="Camada_2" data-name="Camada 2" xmlns="http://www.w3.org/2000/svg" viewBox="0 0 455.02 406.53">
  <defs>
    <style>
      .cls-1 {
        fill: #be4c0c;
      }
    </style>
  </defs>
  <g id="Conteúdo">
    <path class="cls-1" d="m4.17,163.58c-.58-.39-1.35.02-1.35.72l.15,93.91.36.29,207.58,142.68c10.38,7.14,24.09,7.13,34.47,0l201.86-138.9c4.33-2.98,6.91-7.9,6.91-13.15v-86.67c0-.48-.39-.87-.87-.87h0c-.17,0-.34.05-.49.15l-77.27,52.62c-1.68,1.14-2.33,3.31-1.57,5.19h0s1.21,2.81,1.21,2.81c0,.01.01.03.02.04l1.12,3.02s.03.09.04.13l.93,4.75c.02.09.02.19,0,.28l-.94,6.98s-.01.07-.02.1l-1.31,5.12c-.03.11-.08.21-.15.3l-3.87,5.18-2.83,3.42s-.08.08-.12.12l-5.53,4.51s-.1.07-.16.1c-1,.5-2.4,1.16-4.11,1.83-3.28,1.28-12.47,4.88-23.3,3.19-2.68-.42-16.69-2.61-24.44-14.66-1.32-2.06-5.2-8.27-4.71-16.76.09-1.6.51-6.26,3.32-11.34,3.41-6.17,8.31-9.25,10.3-10.47,3.72-2.28,7.25-3.3,12.74-4.89,2.48-.72,4.59-1.21,6.12-1.54.11-.02.21-.07.3-.13l105.88-72.6c6.61-4.53,10.57-12.04,10.57-20.05v-28.07c0-6.86-7.64-10.95-13.35-7.16l-182.84,121.37c-6.6,4.38-9.22,12.79-6.28,20.15l14.32,35.77c2.11,5.28,1.92,11.2-.52,16.34l-33.98,71.3c-1.98,4.15-7.86,4.21-9.92.1l-34.88-69.61c-2.97-5.92-3.33-12.81-1-19.01l12.29-32.69c2.94-7.81.19-16.61-6.66-21.36L8.33,68.59c-3.52-2.44-8.33.08-8.33,4.36v44.77c0,4.59,2.27,8.88,6.06,11.47l107.68,73.43s.08.05.12.07c1.09.52,2.45,1.07,4.05,1.5,1.6.43,2.37.36,3.92.7,2,.43,3.4,1.07,4.89,1.75.94.43,3.96,1.86,7.33,4.54,3.49,2.78,8.33,6.63,11.17,13.26.75,1.75,4.27,9.98,1.05,19.2-3.87,11.08-14.57,15.28-17.45,16.41-15.76,6.18-29.93-2.3-30.72-2.79-1.38-.86-16.76-10.8-15.71-26.18.18-2.62.81-4.96,1.6-6.95,1.23-3.1.06-6.63-2.7-8.49L4.17,163.58Z"/>
    <g>
      <path class="cls-1" d="m227.31,148.26v54.22c0,.36.4.56.69.36L442.6,55.1c6.15-4.24,9.83-11.23,9.83-18.7V9.13c0-6.61-7.41-10.51-12.86-6.77l-212.07,145.54c-.12.08-.19.22-.19.36Z"/>
      <path class="cls-1" d="m227.31,148.5v53.12c0,.72-.81,1.15-1.4.74L9.88,53.63c-4.82-3.32-7.7-8.79-7.7-14.64V7.23c0-5.81,6.51-9.23,11.3-5.95l213.44,146.48c.24.17.39.44.39.74Z"/>
    </g>
  </g>
</svg>